
		<svg xmlns="http://www.w3.org/2000/svg" xmlns:xlink="http://www.w3.org/1999/xlink" version="1.1" width="3179.1044776119397" height="1155.2238805970148">
			
			<g transform="scale(8.955223880597014) translate(10, 10)">
				<defs id="SvgjsDefs2418"></defs><g id="SvgjsG2419" featureKey="root" fill="#2b5a82" transform="matrix(1,0,0,1,0,0)"></g><g id="SvgjsG2420" featureKey="symbol1" fill="#fcbe0f" transform="matrix(1.1875,0,0,1.1875,-9.875,-4.875)"><path xmlns="http://www.w3.org/2000/svg" d="M83.999,33.667c2.758,0,5.001,2.244,5.001,5.001c0,2.756-2.243,4.999-5.001,4.999c-2.757,0-4.999-2.243-4.999-4.999  C79,35.91,81.242,33.667,83.999,33.667 M83.999,32.667c-3.308,0-5.999,2.691-5.999,6.001c0,3.308,2.691,5.999,5.999,5.999  c3.309,0,6.001-2.691,6.001-5.999C90,35.358,87.308,32.667,83.999,32.667L83.999,32.667z"></path><path xmlns="http://www.w3.org/2000/svg" d="M83.999,11C86.757,11,89,13.244,89,16.001C89,18.757,86.757,21,83.999,21C81.242,21,79,18.757,79,16.001  C79,13.244,81.242,11,83.999,11 M83.999,10C80.691,10,78,12.691,78,16.001C78,19.309,80.691,22,83.999,22  C87.308,22,90,19.309,90,16.001C90,12.691,87.308,10,83.999,10L83.999,10z"></path><path xmlns="http://www.w3.org/2000/svg" d="M61.332,56.333c2.758,0,5.001,2.243,5.001,5.001c0,2.757-2.243,4.999-5.001,4.999c-2.757,0-4.999-2.242-4.999-4.999  C56.333,58.576,58.575,56.333,61.332,56.333 M61.332,55.333c-3.308,0-5.999,2.692-5.999,6.001c0,3.308,2.691,5.999,5.999,5.999  c3.309,0,6.001-2.691,6.001-5.999C67.333,58.025,64.641,55.333,61.332,55.333L61.332,55.333z"></path><path xmlns="http://www.w3.org/2000/svg" d="M61.332,79c2.758,0,5.001,2.243,5.001,5.001c0,2.757-2.243,4.999-5.001,4.999c-2.757,0-4.999-2.242-4.999-4.999  C56.333,81.243,58.575,79,61.332,79 M61.332,78c-3.308,0-5.999,2.691-5.999,6.001c0,3.308,2.691,5.999,5.999,5.999  c3.309,0,6.001-2.691,6.001-5.999C67.333,80.691,64.641,78,61.332,78L61.332,78z"></path><path xmlns="http://www.w3.org/2000/svg" d="M61.332,11c2.758,0,5.001,2.244,5.001,5.001c0,2.756-2.243,4.999-5.001,4.999c-2.757,0-4.999-2.243-4.999-4.999  C56.333,13.244,58.575,11,61.332,11 M61.332,10c-3.308,0-5.999,2.691-5.999,6.001c0,3.308,2.691,5.999,5.999,5.999  c3.309,0,6.001-2.691,6.001-5.999C67.333,12.691,64.641,10,61.332,10L61.332,10z"></path><path xmlns="http://www.w3.org/2000/svg" d="M38.666,79c2.757,0,5.001,2.243,5.001,5.001c0,2.757-2.244,4.999-5.001,4.999c-2.756,0-4.999-2.242-4.999-4.999  C33.667,81.243,35.909,79,38.666,79 M38.666,78c-3.308,0-5.999,2.691-5.999,6.001c0,3.308,2.691,5.999,5.999,5.999  c3.309,0,6.001-2.691,6.001-5.999C44.667,80.691,41.974,78,38.666,78L38.666,78z"></path><path xmlns="http://www.w3.org/2000/svg" d="M38.666,33.667c2.757,0,5.001,2.244,5.001,5.001c0,2.756-2.244,4.999-5.001,4.999c-2.756,0-4.999-2.243-4.999-4.999  C33.667,35.91,35.909,33.667,38.666,33.667 M38.666,32.667c-3.308,0-5.999,2.691-5.999,6.001c0,3.308,2.691,5.999,5.999,5.999  c3.309,0,6.001-2.691,6.001-5.999C44.667,35.358,41.974,32.667,38.666,32.667L38.666,32.667z"></path><path xmlns="http://www.w3.org/2000/svg" d="M38.666,11c2.757,0,5.001,2.244,5.001,5.001c0,2.756-2.244,4.999-5.001,4.999c-2.756,0-4.999-2.243-4.999-4.999  C33.667,13.244,35.909,11,38.666,11 M38.666,10c-3.308,0-5.999,2.691-5.999,6.001c0,3.308,2.691,5.999,5.999,5.999  c3.309,0,6.001-2.691,6.001-5.999C44.667,12.691,41.974,10,38.666,10L38.666,10z"></path><path xmlns="http://www.w3.org/2000/svg" d="M15.999,56.333c2.757,0,5.001,2.243,5.001,5.001c0,2.757-2.244,4.999-5.001,4.999c-2.756,0-4.999-2.242-4.999-4.999  C11,58.576,13.243,56.333,15.999,56.333 M15.999,55.333c-3.308,0-5.999,2.692-5.999,6.001c0,3.308,2.691,5.999,5.999,5.999  c3.309,0,6.001-2.691,6.001-5.999C22,58.025,19.308,55.333,15.999,55.333L15.999,55.333z"></path><path xmlns="http://www.w3.org/2000/svg" d="M15.999,79C18.756,79,21,81.243,21,84.001C21,86.758,18.756,89,15.999,89C13.243,89,11,86.758,11,84.001  C11,81.243,13.243,79,15.999,79 M15.999,78C12.691,78,10,80.691,10,84.001C10,87.309,12.691,90,15.999,90  C19.308,90,22,87.309,22,84.001C22,80.691,19.308,78,15.999,78L15.999,78z"></path><path xmlns="http://www.w3.org/2000/svg" d="M84.5,78.025V67.308c3.074-0.256,5.5-2.835,5.5-5.974c0-3.309-2.692-6.001-6.001-6.001c-1.474,0-2.823,0.537-3.869,1.423  L65.91,42.537c0.886-1.045,1.423-2.395,1.423-3.869c0-3.31-2.692-6.001-6.001-6.001c-3.308,0-5.999,2.691-5.999,6.001  c0,1.474,0.537,2.824,1.423,3.87l-14.22,14.219c-1.046-0.886-2.396-1.423-3.871-1.423c-1.474,0-2.824,0.537-3.87,1.423  L20.577,42.537C21.463,41.492,22,40.142,22,38.667c0-3.141-2.426-5.72-5.501-5.976V21.975C19.574,21.719,22,19.14,22,16.001  C22,12.691,19.308,10,15.999,10C12.691,10,10,12.691,10,16.001c0,3.139,2.425,5.718,5.499,5.974v10.717  C12.425,32.947,10,35.527,10,38.667c0,3.308,2.691,5.999,5.999,5.999c1.475,0,2.825-0.537,3.871-1.422l14.22,14.219  c-0.886,1.046-1.423,2.396-1.423,3.871c0,3.308,2.691,5.999,5.999,5.999c3.309,0,6.001-2.691,6.001-5.999  c0-1.475-0.537-2.825-1.423-3.871l14.22-14.219c1.045,0.885,2.395,1.422,3.869,1.422s2.825-0.537,3.871-1.423l14.22,14.219  C78.537,58.509,78,59.859,78,61.334c0,3.139,2.426,5.719,5.5,5.974v10.718C80.426,78.28,78,80.86,78,84.001  C78,87.309,80.691,90,83.999,90C87.308,90,90,87.309,90,84.001C90,80.86,87.574,78.281,84.5,78.025z"></path></g><g id="SvgjsG2421" featureKey="text1" fill="#ffffff" transform="matrix(2.736350643456962,0,0,2.736350643456962,111.44274429398531,22.442620631051565)"><path d="M1.3 20 l0 -14.24 l5.12 0 c0.9 0 1.76 0.36 2.38 1 c0.64 0.62 1 1.48 1 2.38 c0 0.7 -0.2 1.36 -0.6 1.92 l-0.02 0.02 l0.02 0.02 c0.56 0.22 1.08 0.56 1.5 1 c0.88 0.86 1.36 2.02 1.36 3.26 c0 1.22 -0.48 2.38 -1.36 3.26 c-0.86 0.86 -2.02 1.38 -3.24 1.38 l-6.16 0 z M3.08 18.26 l4.38 0 c1.56 -0.04 2.82 -1.36 2.82 -2.9 c0 -1.56 -1.26 -2.84 -2.82 -2.86 l-4.38 0 l0 5.76 z M3.08 10.76 l3.34 0 c0.88 -0.02 1.6 -0.74 1.6 -1.62 s-0.7 -1.6 -1.6 -1.64 l-3.34 0 l0 3.26 z M15.72 10.84 l0 0.94 c0.58 -0.64 2.28 -1.14 3.34 -1.14 l-0.42 1.72 c-1.6 0 -2.92 1.22 -2.92 2.76 l0 4.88 l-1.72 0 l0 -9.16 l1.72 0 z M21.680000000000003 9.36 c-0.64 0 -1.14 -0.52 -1.14 -1.14 s0.5 -1.12 1.14 -1.12 c0.62 0 1.12 0.5 1.12 1.12 s-0.5 1.14 -1.12 1.14 z M20.82 20 l0 -9.16 l1.72 0 l0 9.16 l-1.72 0 z M34.44 10.84 l-3.6 4.32 l4.06 4.84 l-2.24 0 l-2.96 -3.5 l-2.94 3.5 l-2.24 0 l4.06 -4.84 l-3.62 -4.32 l2.26 0 l2.48 2.98 l2.5 -2.98 l2.24 0 z  M41.42 20 l0 -14.24 l1.8 0 l0 12.5 l7.8 0 l0 1.74 l-9.6 0 z M60.06 11.9 l0 -1.06 l1.72 0 l0 9.16 l-1.72 0 l0 -1.06 c-0.86 0.72 -1.94 1.26 -3.08 1.26 c-1.28 0 -2.48 -0.48 -3.4 -1.38 c-0.9 -0.92 -1.4 -2.12 -1.4 -3.4 s0.5 -2.48 1.4 -3.4 c0.92 -0.9 2.12 -1.38 3.4 -1.38 c1.14 0 2.22 0.54 3.08 1.26 z M56.980000000000004 18.52 c1.7 0 3.08 -1.4 3.08 -3.1 s-1.38 -3.1 -3.08 -3.1 s-3.08 1.4 -3.08 3.1 s1.38 3.1 3.08 3.1 z M72.18 12.02 c0.92 0.92 1.42 2.12 1.42 3.4 s-0.5 2.48 -1.42 3.4 c-0.9 0.9 -2.1 1.38 -3.38 1.38 c-1.14 0 -2.22 -0.54 -3.08 -1.26 l0 1.06 l-1.72 0 l0 -14.68 l1.72 0 l0 6.58 c0.86 -0.72 1.94 -1.26 3.08 -1.26 c1.28 0 2.48 0.48 3.38 1.38 z M68.8 18.52 c1.7 0 3.08 -1.4 3.08 -3.1 s-1.38 -3.1 -3.08 -3.1 s-3.08 1.4 -3.08 3.1 s1.38 3.1 3.08 3.1 z M81.4 15.9 c0.28 0.4 0.42 0.88 0.42 1.4 s-0.14 1.02 -0.44 1.44 c-0.28 0.42 -0.68 0.74 -1.22 1 c-0.48 0.22 -1.06 0.34 -1.64 0.34 c-0.32 0 -0.62 -0.04 -0.94 -0.1 c-1 -0.2 -1.94 -0.64 -2.74 -1.32 l1.08 -1.18 c1.06 0.9 1.96 1.08 2.52 1.08 c0.38 0 0.74 -0.08 1.06 -0.22 c0.26 -0.12 0.72 -0.42 0.72 -1.04 s-0.54 -1 -1.78 -1.22 c-0.06 -0.02 -1.58 -0.3 -2.14 -0.62 c-0.84 -0.48 -1.28 -1.22 -1.28 -2.14 c0 -0.5 0.16 -0.98 0.44 -1.4 c0.26 -0.36 0.62 -0.64 1.14 -0.88 c0.48 -0.22 1 -0.34 1.58 -0.34 c0.22 0 0.46 0.02 0.68 0.04 c0.88 0.14 1.74 0.52 2.46 1.1 l-1 1.16 c-0.9 -0.7 -1.68 -0.8 -2.06 -0.8 c-0.36 0 -0.7 0.06 -0.98 0.2 c-0.4 0.2 -0.66 0.56 -0.66 0.92 c0 0.6 0.48 0.92 1.7 1.18 c0.02 0 1.66 0.36 2.12 0.62 c0.54 0.28 0.74 0.5 0.96 0.78 z"></path></g>
			</g>
		</svg>
	